# xmcd
#
# Track frame offsets: 
#        150
#        14762
#        33152
#        49075
#        66637
#        78375
#        88400
#        105172
#        120375
#        134557
#        147295
#        163850
#        179510
#        194000
#        210475
#        226607
#
# Disc length: 3197 seconds
#
# Revision: 13
# Processed by: cddbd v1.5.2PL0 Copyright (c) Steve Scherf et al.
# Submitted via: ExactAudioCopy v1.3
#
DISCID=e40c7b10
DTITLE=Various Artist - 6 Pair ? and ???? (?????)
DYEAR=1990
DGENRE=Folk
TTITLE0=??? - ????
TTITLE1=??? - ???
TTITLE2=??? - ???
TTITLE3=?? - ??
TTITLE4=??????? - ????
TTITLE5=??? - ???
TTITLE6=??? - ??????
TTITLE7=??? - ?????
TTITLE8=??? - ??
TTITLE9=??? - ??
TTITLE10=??? - ??????
TTITLE11=??????? - ?
TTITLE12=??? - ??
TTITLE13=??? - ??
TTITLE14=??? - ?
TTITLE15=??? - ?????
EXTD=YEAR: 1990
EXTT0=
EXTT1=
EXTT2=
EXTT3=
EXTT4=
EXTT5=
EXTT6=
EXTT7=
EXTT8=
EXTT9=
EXTT10=
EXTT11=
EXTT12=
EXTT13=
EXTT14=
EXTT15=
PLAYORDER=
